<svg width="640" height="400" viewBox="0 0 640 400" fill="none" xmlns="http://www.w3.org/2000/svg">
  <rect width="640" height="400" rx="42" fill="#064E3B"/>
  <rect width="640" height="400" rx="42" fill="url(#paint0_linear)"/>
  <path d="M-12 282C73 224 157 218 253 251C359 287 432 288 529 218C574 185 611 176 652 180V400H-12V282Z" fill="#34D399" fill-opacity="0.22"/>
  <path d="M411 -10C377 36 367 92 399 148C433 206 514 222 652 176V-10H411Z" fill="#A7F3D0" fill-opacity="0.2"/>
  <rect x="54" y="70" width="92" height="68" rx="16" fill="#F8D36D"/>
  <rect x="68" y="86" width="64" height="36" rx="8" stroke="#14532D" stroke-opacity="0.46" stroke-width="4"/>
  <path d="M102 70V138" stroke="#14532D" stroke-opacity="0.35" stroke-width="4"/>
  <path d="M54 104H146" stroke="#14532D" stroke-opacity="0.35" stroke-width="4"/>
  <text x="54" y="246" fill="#ECFDF5" font-family="Inter, Arial, sans-serif" font-size="28" font-weight="700">FinEx Card</text>
  <text x="54" y="300" fill="#D1FAE5" font-family="Inter, Arial, sans-serif" font-size="22" letter-spacing="7">LAST4</text>
  <rect x="466" y="286" width="118" height="42" rx="21" fill="#FFFFFF" fill-opacity="0.16"/>
  <text x="490" y="315" fill="#ECFDF5" font-family="Inter, Arial, sans-serif" font-size="18" font-weight="700">CLP/USD</text>
  <defs>
    <linearGradient id="paint0_linear" x1="35" y1="19" x2="608" y2="373" gradientUnits="userSpaceOnUse">
      <stop stop-color="#10B981"/>
      <stop offset="0.52" stop-color="#047857"/>
      <stop offset="1" stop-color="#022C22"/>
    </linearGradient>
  </defs>
</svg>
